<svg xmlns="http://www.w3.org/2000/svg" viewBox="0 0 64 64">
  <defs>
    <linearGradient id="bg" x1="0%" y1="0%" x2="100%" y2="100%">
      <stop offset="0%" stop-color="#f6fff9"/>
      <stop offset="100%" stop-color="#d7efe1"/>
    </linearGradient>
    <linearGradient id="fruit" x1="0%" y1="0%" x2="100%" y2="100%">
      <stop offset="0%" stop-color="#f2c94c"/>
      <stop offset="100%" stop-color="#f2994a"/>
    </linearGradient>
  </defs>
  <rect width="64" height="64" rx="16" fill="url(#bg)"/>
  <path d="M18 25h28l-2.8 19.5A6 6 0 0 1 37.26 50H26.74a6 6 0 0 1-5.94-5.5L18 25Z" fill="#2d7a5a"/>
  <path d="M24 25c0-6 3.7-11 8-11s8 5 8 11" fill="none" stroke="#1f5540" stroke-linecap="round" stroke-width="4"/>
  <circle cx="24" cy="34" r="6" fill="url(#fruit)"/>
  <circle cx="32" cy="38" r="6.5" fill="#eb5757"/>
  <circle cx="40" cy="33.5" r="5.5" fill="#6fcf97"/>
  <path d="M33 18c1.5-4 4.5-6 9-6-1 3.5-3.5 5.7-7.4 6.4" fill="none" stroke="#27ae60" stroke-linecap="round" stroke-width="3"/>
</svg>
